<svg width="33" height="32" viewBox="0 0 33 32" fill="none" xmlns="http://www.w3.org/2000/svg">
<g id="reviews.svg">
<g id="g3702">
<path id="path3692" d="M10.8228 24.9567C10.7661 24.9667 10.7079 24.9667 10.651 24.9567C10.4753 24.8844 10.3604 24.7135 10.3596 24.5234V21.2215H8.46214C8.00837 21.2215 7.57337 21.0412 7.25235 20.7204C6.93156 20.3996 6.75146 19.9644 6.75146 19.5108V8.94004C6.75146 8.48627 6.93156 8.05126 7.25235 7.73046C7.57334 7.40946 8.00836 7.22937 8.46214 7.22937H20.6167C20.8518 7.25918 21.0281 7.45907 21.0281 7.69628C21.0281 7.93327 20.8518 8.13338 20.6167 8.16318H8.46214C8.04964 8.16318 7.71509 8.49752 7.71509 8.91023V19.5184C7.71509 19.7166 7.79388 19.9067 7.93396 20.0468C8.07403 20.1868 8.26392 20.2654 8.46214 20.2654H10.8227C11.0826 20.2654 11.2934 20.4761 11.2934 20.7361V23.2761L14.0352 20.4747C14.1213 20.3799 14.2432 20.3257 14.3712 20.3253H24.6506C24.8489 20.3253 25.0388 20.2467 25.1788 20.1064C25.3191 19.9663 25.3977 19.7764 25.3977 19.5782V12.8921C25.3808 12.7581 25.4223 12.6232 25.5115 12.5219C25.6009 12.4204 25.7295 12.3624 25.8646 12.3624C25.9999 12.3624 26.1285 12.4204 26.2177 12.5219C26.3071 12.6232 26.3486 12.7581 26.3315 12.8921V19.5184C26.3296 19.9657 26.1527 20.3945 25.8385 20.713C25.5242 21.0313 25.0979 21.2141 24.6506 21.2218H14.5729L11.1664 24.7853C11.0799 24.8866 10.9558 24.9485 10.8226 24.9571L10.8228 24.9567Z" fill="white"/>
<path id="path3694" d="M18.0766 10.9868H9.26888C9.03355 10.957 8.85742 10.7569 8.85742 10.5199C8.85742 10.2829 9.03356 10.0828 9.26888 10.053H18.0766C18.2106 10.0361 18.3455 10.0776 18.447 10.1668C18.5483 10.2562 18.6065 10.3848 18.6065 10.5199C18.6065 10.6552 18.5483 10.7838 18.447 10.873C18.3455 10.9624 18.2106 11.0039 18.0766 10.9868Z" fill="white"/>
<path id="path3696" d="M15.3051 13.8182H9.26888C9.03355 13.7884 8.85742 13.5883 8.85742 13.3513C8.85742 13.1141 9.03356 12.9142 9.26888 12.8844H15.3051H15.3048C15.4391 12.8673 15.5739 12.9088 15.6752 12.9982C15.7767 13.0874 15.8347 13.216 15.8347 13.3513C15.8347 13.4864 15.7768 13.615 15.6752 13.7044C15.5739 13.7936 15.4391 13.8351 15.3048 13.8182H15.3051Z" fill="white"/>
<path id="path3698" d="M15.3051 16.6421H9.26888C9.03355 16.6123 8.85742 16.4122 8.85742 16.1752C8.85742 15.9382 9.03356 15.7381 9.26888 15.7083H15.3051H15.3048C15.4391 15.6914 15.5739 15.7327 15.6752 15.8221C15.7767 15.9115 15.8347 16.0401 15.8347 16.1752C15.8347 16.3103 15.7768 16.4389 15.6752 16.5283C15.5739 16.6177 15.4391 16.6592 15.3048 16.6421H15.3051Z" fill="white"/>
<path id="path3700" d="M17.24 16.6421C17.0818 16.6454 16.933 16.5676 16.8452 16.4359C16.7573 16.3042 16.7429 16.137 16.8067 15.9921L17.9571 13.1682H17.9573C17.984 13.105 18.0248 13.0487 18.0767 13.0039L23.9112 7.16947C24.094 6.99104 24.3858 6.99104 24.5686 7.16947L26.2943 8.91015C26.3852 8.99519 26.4367 9.11421 26.4363 9.23886C26.4342 9.36267 26.3831 9.48086 26.2943 9.56757L20.6092 15.2452C20.5678 15.2906 20.5167 15.3262 20.4598 15.3498L17.4193 16.6198C17.3614 16.6378 17.3007 16.6453 17.24 16.6421L17.24 16.6421ZM18.8238 13.609L18.0767 15.3124L20.0117 14.498L25.2859 9.26867L24.2249 8.17792L18.8238 13.609Z" fill="white"/>
</g>
</g>
</svg>
