<svg width="33" height="32" viewBox="0 0 33 32" fill="none" xmlns="http://www.w3.org/2000/svg">
<g id="share.svg">
<g id="Clip path group">
<mask id="mask0_30_1103" style="mask-type:luminance" maskUnits="userSpaceOnUse" x="5" y="5" width="22" height="22">
<g id="a">
<path id="Vector" d="M5.93945 5.92383H26.0918V26.0762H5.93945V5.92383Z" fill="white"/>
</g>
</mask>
<g mask="url(#mask0_30_1103)">
<g id="Group">
<path id="Vector_2" d="M22.4934 5.92383C20.5147 5.92383 18.895 7.54349 18.895 9.52221C18.895 9.84468 18.9415 10.1557 19.0222 10.4536L12.3639 13.7832C11.7033 12.9444 10.6823 12.4015 9.53808 12.4015C7.55936 12.4015 5.9397 14.0212 5.9397 15.9999C5.9397 17.9786 7.55936 19.5983 9.53808 19.5983C10.681 19.5983 11.7026 19.0554 12.3632 18.2171L19.0224 21.5468C18.9424 21.8446 18.8952 22.1551 18.8952 22.4776C18.8952 24.4563 20.5149 26.076 22.4936 26.076C24.4723 26.076 26.092 24.4563 26.092 22.4776C26.092 20.4989 24.4723 18.8792 22.4936 18.8792C21.3493 18.8792 20.3285 19.4221 19.6678 20.2609L13.0095 16.9313C13.0901 16.6334 13.1367 16.3223 13.1367 15.9999C13.1367 15.6774 13.0901 15.3669 13.0095 15.0691L19.6687 11.7394C20.3292 12.5777 21.3502 13.1206 22.4938 13.1206C24.4725 13.1206 26.0922 11.5009 26.0922 9.52221C26.0922 7.54349 24.4725 5.92383 22.4938 5.92383H22.4934ZM22.4934 7.36349C23.6944 7.36349 24.6528 8.32191 24.6528 9.52289C24.6528 10.7239 23.6944 11.6823 22.4934 11.6823C21.2924 11.6823 20.334 10.7239 20.334 9.52289C20.334 8.32191 21.2924 7.36349 22.4934 7.36349ZM9.53807 13.8405C10.739 13.8405 11.6975 14.7989 11.6975 15.9999C11.6975 17.2009 10.739 18.1593 9.53807 18.1593C8.33709 18.1593 7.37866 17.2009 7.37866 15.9999C7.37866 14.7989 8.33709 13.8405 9.53807 13.8405ZM22.4934 20.3184C23.6944 20.3184 24.6528 21.2768 24.6528 22.4778C24.6528 23.6788 23.6944 24.6372 22.4934 24.6372C21.2924 24.6372 20.334 23.6788 20.334 22.4778C20.334 21.2768 21.2924 20.3184 22.4934 20.3184Z" fill="white"/>
</g>
</g>
</g>
</g>
</svg>
