<svg width="25" height="25" viewBox="0 0 25 25" fill="none" xmlns="http://www.w3.org/2000/svg">
<g id="headphones" clip-path="url(#clip0_30_1075)">
<path id="Vector" d="M20.3125 15.1042H18.2292C17.6539 15.1042 17.1875 15.5706 17.1875 16.1459V23.4376C17.1875 24.0129 17.6539 24.4792 18.2292 24.4792H20.3125C20.8878 24.4792 21.3542 24.0129 21.3542 23.4376V16.1459C21.3542 15.5706 20.8878 15.1042 20.3125 15.1042Z" fill="white"/>
<path id="Vector_2" d="M23.4377 16.6667H22.396V22.9167H23.4377C23.7139 22.9167 23.9789 22.807 24.1742 22.6117C24.3696 22.4163 24.4793 22.1513 24.4793 21.8751V17.7084C24.4793 17.4321 24.3696 17.1672 24.1742 16.9718C23.9789 16.7765 23.7139 16.6667 23.4377 16.6667Z" fill="white"/>
<path id="Vector_3" d="M6.771 15.1042H4.68766C4.11237 15.1042 3.646 15.5706 3.646 16.1459V23.4376C3.646 24.0129 4.11237 24.4792 4.68766 24.4792H6.771C7.34629 24.4792 7.81266 24.0129 7.81266 23.4376V16.1459C7.81266 15.5706 7.34629 15.1042 6.771 15.1042Z" fill="white"/>
<path id="Vector_4" d="M0.520996 17.7084V21.875C0.520996 22.1513 0.630743 22.4163 0.826093 22.6116C1.02144 22.807 1.2864 22.9167 1.56266 22.9167H2.60433V16.6667H1.56266C1.2864 16.6667 1.02144 16.7765 0.826093 16.9718C0.630743 17.1672 0.520996 17.4321 0.520996 17.7084ZM19.4637 10.3386C19.6041 10.7917 19.848 11.206 20.1761 11.5486C20.5043 11.8912 20.9077 12.1528 21.3543 12.3125C21.3543 9.96427 20.4215 7.71218 18.761 6.0517C17.1005 4.39122 14.8484 3.45837 12.5002 3.45837C10.1519 3.45837 7.8998 4.39122 6.23932 6.0517C4.57884 7.71218 3.646 9.96427 3.646 12.3125C4.09171 12.1521 4.49404 11.8902 4.82124 11.5477C5.14844 11.2051 5.39156 10.7912 5.53141 10.3386C7.65641 3.50525 17.3647 3.53129 19.4637 10.3386Z" fill="white"/>
<path id="Vector_5" d="M20.9689 4.03128C13.4741 -3.46351 0.520996 1.82815 0.520996 12.5V15.9063C1.14079 15.5521 1.59912 15.625 2.60433 15.625C2.60433 12.3229 2.16683 8.85419 5.50537 5.50524C11.672 -0.677053 22.396 3.64586 22.396 12.5V15.625C23.4064 15.625 23.8699 15.5573 24.4793 15.9063C24.4793 12.2709 25.0002 8.03648 20.9689 4.03128Z" fill="white"/>
</g>
<defs>
<clipPath id="clip0_30_1075">
<rect width="25" height="25" fill="white"/>
</clipPath>
</defs>
</svg>
