<svg width="33" height="32" viewBox="0 0 33 32" fill="none" xmlns="http://www.w3.org/2000/svg">
<g id="notes.svg">
<g id="Group">
<path id="Vector" d="M10.139 24.7157H16.805C16.861 24.715 16.9165 24.7044 16.9687 24.6843C17.0209 24.6637 17.0689 24.6337 17.1105 24.596L22.753 19.262C22.7972 19.2212 22.8327 19.1719 22.8569 19.117C22.8792 19.0651 22.892 19.0096 22.8948 18.9533V14.1482C22.8948 13.8872 22.6832 13.6757 22.4224 13.6757C22.1616 13.6757 21.9501 13.8872 21.9501 14.1482V18.446H19.0469C18.3269 18.4477 17.6371 18.7346 17.1283 19.2441C16.6195 19.7534 16.3334 20.4436 16.3326 21.1635V23.7707H10.139C9.66958 23.7707 9.21945 23.5843 8.88767 23.2524C8.55572 22.9206 8.3692 22.4705 8.3692 22.0011V11.9534C8.3692 11.4838 8.55554 11.0334 8.88733 10.7011C9.21911 10.3686 9.66924 10.1815 10.139 10.1806H17.9922C18.253 10.1806 18.4644 9.9692 18.4644 9.70839C18.4644 9.44742 18.253 9.23596 17.9922 9.23596H10.139C9.41907 9.23762 8.72907 9.52469 8.22043 10.034C7.71162 10.5433 7.42537 11.2335 7.42456 11.9534V22.001C7.42539 22.7206 7.71163 23.4106 8.2206 23.9194C8.72941 24.4282 9.41924 24.7145 10.139 24.7153L10.139 24.7157ZM19.0471 19.391H21.2512L17.2775 23.1476V21.1638C17.2775 20.6942 17.4638 20.2437 17.7956 19.9114C18.1274 19.579 18.5775 19.3918 19.0471 19.391Z" fill="white"/>
<path id="Vector_2" d="M21.7709 8.14676C21.6458 8.14759 21.5261 8.19729 21.4371 8.28522L14.2674 15.455C14.2163 15.5077 14.1776 15.5712 14.154 15.6408L13.3069 18.2417C13.2537 18.4105 13.2986 18.595 13.4234 18.7203C13.5489 18.8453 13.7333 18.8902 13.9022 18.8368L16.5031 17.9866V17.9868C16.5725 17.9632 16.636 17.9244 16.6887 17.8734L23.8555 10.7036C24.0381 10.5184 24.0381 10.2212 23.8555 10.036L22.1049 8.28519C22.0163 8.1966 21.8963 8.14689 21.7711 8.14673L21.7709 8.14676ZM16.1028 17.1238L14.497 17.6497L15.0229 16.0438L21.7705 9.28637L22.8536 10.3695L16.1028 17.1238Z" fill="white"/>
</g>
</g>
</svg>
